<svg xmlns="http://www.w3.org/2000/svg" xmlns:xlink="http://www.w3.org/1999/xlink" viewBox="0 0 264.78 264.78"><defs><style>.cls-1{fill:none;}.cls-2{isolation:isolate;}.cls-3{fill:#0075c2;}.cls-4{clip-path:url(#clip-path);}.cls-5{mix-blend-mode:multiply;fill:url(#名称未設定グラデーション_42);}.cls-6{fill:#fff;}.cls-7,.cls-9{mix-blend-mode:luminosity;}.cls-8{clip-path:url(#clip-path-2);}.cls-9{fill:url(#名称未設定グラデーション_2);}</style><clipPath id="clip-path" transform="translate(28.83 28.92)"><rect class="cls-1" x="-0.1" y="-0.23" width="206.93" height="206.93" rx="8.51"/></clipPath><linearGradient id="名称未設定グラデーション_42" x1="235.92" y1="235.76" x2="18.49" y2="18.33" gradientUnits="userSpaceOnUse"><stop offset="0.3" stop-color="#666" stop-opacity="0"/><stop offset="1" stop-color="#666"/></linearGradient><clipPath id="clip-path-2" transform="translate(28.83 28.92)"><rect class="cls-1" x="0.1" width="206.93" height="206.93" rx="8.51"/></clipPath><linearGradient id="名称未設定グラデーション_2" x1="264.78" y1="264.78" x2="0" gradientUnits="userSpaceOnUse"><stop offset="0.3" stop-color="#fff" stop-opacity="0"/><stop offset="1" stop-color="#fff" stop-opacity="0.2"/></linearGradient></defs><g class="cls-2"><g id="背景"><rect class="cls-3" x="29.08" y="28.92" width="206.93" height="206.93" rx="8.51"/></g><g id="ドロップシャドウ"><g class="cls-4"><path class="cls-5" d="M235.57,65.57A1.37,1.37,0,0,0,235,65a1.42,1.42,0,0,0-.57-.57,1.37,1.37,0,0,0-.56-.56,1.42,1.42,0,0,0-.57-.57,1.37,1.37,0,0,0-.56-.56,1.42,1.42,0,0,0-.57-.57,1.37,1.37,0,0,0-.56-.56,1.42,1.42,0,0,0-.57-.57,1.37,1.37,0,0,0-.56-.56,1.42,1.42,0,0,0-.57-.57,45.15,45.15,0,0,1-1.13-1.13,45.15,45.15,0,0,1-1.13-1.13,1.34,1.34,0,0,0-.57-.56A45.15,45.15,0,0,0,226,56a45.15,45.15,0,0,0-1.13-1.13,45.15,45.15,0,0,0-1.13-1.13,1.29,1.29,0,0,0-.56-.57,1.29,1.29,0,0,0-.57-.56A1.29,1.29,0,0,0,222,52a1.29,1.29,0,0,0-.57-.56,1.29,1.29,0,0,0-.56-.57,1.29,1.29,0,0,0-.57-.56,1.29,1.29,0,0,0-.56-.57,1.29,1.29,0,0,0-.57-.56,1.29,1.29,0,0,0-.56-.57,1.29,1.29,0,0,0-.57-.56,1.29,1.29,0,0,0-.56-.57,1.29,1.29,0,0,0-.57-.56,1.29,1.29,0,0,0-.56-.57,1.29,1.29,0,0,0-.57-.56,1.29,1.29,0,0,0-.56-.57,1.29,1.29,0,0,0-.57-.56,1.29,1.29,0,0,0-.56-.57,1.29,1.29,0,0,0-.57-.56A1.29,1.29,0,0,0,213,43a1.29,1.29,0,0,0-.57-.56,1.29,1.29,0,0,0-.56-.57,1.29,1.29,0,0,0-.57-.56,1.29,1.29,0,0,0-.56-.57,1.29,1.29,0,0,0-.57-.56,1.29,1.29,0,0,0-.56-.57A1.29,1.29,0,0,0,209,39a1.29,1.29,0,0,0-.56-.57,1.29,1.29,0,0,0-.57-.56,1.29,1.29,0,0,0-.56-.57,1.29,1.29,0,0,0-.57-.56,1.29,1.29,0,0,0-.56-.57,1.29,1.29,0,0,0-.57-.56,1.29,1.29,0,0,0-.56-.57,1.29,1.29,0,0,0-.57-.56,1.29,1.29,0,0,0-.56-.57,1.29,1.29,0,0,0-.57-.56,1.29,1.29,0,0,0-.56-.57,1.29,1.29,0,0,0-.57-.56,1.29,1.29,0,0,0-.56-.57,1.29,1.29,0,0,0-.57-.56,1.29,1.29,0,0,0-.56-.57A1.29,1.29,0,0,0,200,30a1.29,1.29,0,0,0-.56-.57,1.29,1.29,0,0,0-.57-.56,1.29,1.29,0,0,0-.56-.57,1.29,1.29,0,0,0-.57-.56,1.34,1.34,0,0,0-.56-.57,1.29,1.29,0,0,0-.57-.56A1.34,1.34,0,0,0,196,26a1.34,1.34,0,0,0-.57-.56,1.34,1.34,0,0,0-.56-.57,1.34,1.34,0,0,0-.57-.56,1.34,1.34,0,0,0-.56-.57,1.34,1.34,0,0,0-.57-.56,1.34,1.34,0,0,0-.56-.57,1.34,1.34,0,0,0-.57-.56,1.34,1.34,0,0,0-.56-.57,1.42,1.42,0,0,0-.57-.57,1.37,1.37,0,0,0-.56-.56,1.42,1.42,0,0,0-.57-.57,1.37,1.37,0,0,0-.56-.56,1.42,1.42,0,0,0-.57-.57,1.32,1.32,0,0,0-1.18-.73h-24a1.32,1.32,0,0,0-.83.3c-1.46,1.17-3,2.28-4.47,3.36a.64.64,0,0,0-.18-.1,1.28,1.28,0,0,0-.56-.57,1.34,1.34,0,0,0-.57-.56,1.28,1.28,0,0,0-.56-.57,1.34,1.34,0,0,0-.57-.56,1.28,1.28,0,0,0-.56-.57,1.33,1.33,0,0,0-1.19-.73H52.94a1.35,1.35,0,0,0-.77,2.46l.16.1a1.22,1.22,0,0,0,.41.47l.15.1a1.28,1.28,0,0,0,.41.46l.16.1a1.22,1.22,0,0,0,.41.47l.15.1a1.28,1.28,0,0,0,.41.46l.16.1a1.22,1.22,0,0,0,.41.47l.15.1a1.28,1.28,0,0,0,.41.46l.16.1a1.22,1.22,0,0,0,.41.47l.15.1a1.28,1.28,0,0,0,.41.46l.16.1a1.22,1.22,0,0,0,.41.47l.15.1a1.28,1.28,0,0,0,.41.46l.16.11a1.27,1.27,0,0,0,.41.46l.15.1a1.28,1.28,0,0,0,.41.46l.16.11a1.27,1.27,0,0,0,.41.46l.15.1a1.28,1.28,0,0,0,.41.46l.16.11a1.27,1.27,0,0,0,.41.46l.15.1a1.28,1.28,0,0,0,.41.46l.16.11a1.27,1.27,0,0,0,.41.46l.15.1a1.28,1.28,0,0,0,.41.46l.08.05a1,1,0,0,0-.19.17l-.22.26a1.47,1.47,0,0,0-.44-.37h0a1.32,1.32,0,0,0-.54-.56h0a1.32,1.32,0,0,0-.55-.55h0a1.32,1.32,0,0,0-.54-.56h0a1.32,1.32,0,0,0-.55-.55h0a1.38,1.38,0,0,0-.54-.56,94.38,94.38,0,0,1-14.47-9.61,1.35,1.35,0,0,0-.84-.3h-24a1.36,1.36,0,0,0-1.35,1.35v23.5A1.34,1.34,0,0,0,18.82,44a1.36,1.36,0,0,0,.57.57,1.32,1.32,0,0,0,.56.56,1.36,1.36,0,0,0,.57.57,1.32,1.32,0,0,0,.56.56,1.36,1.36,0,0,0,.57.57,1.32,1.32,0,0,0,.56.56,1.62,1.62,0,0,0,.1.18c-.9-.1-1.79-.21-2.68-.35a1.34,1.34,0,0,0-1.55,1.33V70.89a1.37,1.37,0,0,0,.67,1.18l.06,0a1.3,1.3,0,0,0,.51.53l.06,0a1.3,1.3,0,0,0,.5.54l.06,0a1.3,1.3,0,0,0,.51.53l.06,0a1.3,1.3,0,0,0,.5.54l.06,0a1.3,1.3,0,0,0,.51.53l.06,0a1.34,1.34,0,0,0,.5.53l.06,0a1.3,1.3,0,0,0,.51.53l.06,0a1.34,1.34,0,0,0,.5.53l.06,0a1.3,1.3,0,0,0,.51.53l.06,0a1.34,1.34,0,0,0,.5.53l.06,0a1.3,1.3,0,0,0,.51.53l.06,0a1.34,1.34,0,0,0,.5.53l.06,0a1.3,1.3,0,0,0,.51.53l.06,0a1.34,1.34,0,0,0,.5.53l.06,0a1.3,1.3,0,0,0,.51.53l.06,0a1.34,1.34,0,0,0,.5.53l.06,0a1.3,1.3,0,0,0,.51.53l.06,0a1.34,1.34,0,0,0,.5.53l.06,0a1.3,1.3,0,0,0,.51.53l.06,0a1.34,1.34,0,0,0,.5.53l.06,0a1.3,1.3,0,0,0,.51.53l.06,0a1.34,1.34,0,0,0,.5.53l.06,0a1.3,1.3,0,0,0,.51.53l.06,0a1.34,1.34,0,0,0,.5.53l.06,0a1.3,1.3,0,0,0,.51.53l.06,0a1.34,1.34,0,0,0,.5.53l.06,0a1.3,1.3,0,0,0,.51.53l.06,0a1.34,1.34,0,0,0,.5.53l.06,0a1.3,1.3,0,0,0,.51.53l.06,0a1.34,1.34,0,0,0,.5.53l.06,0a1.3,1.3,0,0,0,.51.53l.06,0a1.34,1.34,0,0,0,.5.53l.06,0a1.3,1.3,0,0,0,.51.53l.06,0a1.34,1.34,0,0,0,.5.53l.06,0a1.3,1.3,0,0,0,.51.53l.06,0a1.34,1.34,0,0,0,.5.53l.06,0a1.3,1.3,0,0,0,.51.53l.06,0a1.34,1.34,0,0,0,.5.53l.06,0a1.3,1.3,0,0,0,.51.53l.06,0a1.34,1.34,0,0,0,.5.53l.06,0a1.3,1.3,0,0,0,.51.53l.06,0a1.34,1.34,0,0,0,.5.53l.06,0a1.3,1.3,0,0,0,.51.53l.06,0a1.34,1.34,0,0,0,.5.53l.06,0a.76.76,0,0,0,.08.11L23,113.75l7,8.3.06,0,.6.71.07,0,.6.71.06-.05.6.72.06-.05.61.71.06,0,.6.72.06-.06.6.72.06,0,.61.71.06,0,.6.72.06,0,.6.71.07-.05.6.71.06-.05.6.72.06,0,.6.71.07,0,.6.71.06,0,.6.72.06-.05L40,132l.06-.05.6.72.06,0,.6.71.06-.05L42,134l.06-.05.6.72.06,0,.6.71.07,0,.6.71.06,0v30.82h.66v.66h.67v.66H46v.67h.67v.66h.66v.67H48v.66h.67v.66h.66v.67H50v.66h.67v.66h.66v.67H52v.66h.67v.66h.66V176H54v.66h.66v.67h.66V178H56v.66h.66v.67h.66V180H58v.66h.66v.67h.67V182H60v.67h.66v.66h.67V184H62v.67h.66v.44H20A1.93,1.93,0,0,0,19,188.67a1.76,1.76,0,0,0,.56.56,1.94,1.94,0,0,0,.57.57,1.76,1.76,0,0,0,.56.56,1.94,1.94,0,0,0,.57.57,1.76,1.76,0,0,0,.56.56,1.94,1.94,0,0,0,.57.57,1.76,1.76,0,0,0,.56.56,1.94,1.94,0,0,0,.57.57,1.76,1.76,0,0,0,.56.56,1.94,1.94,0,0,0,.57.57,1.76,1.76,0,0,0,.56.56,1.94,1.94,0,0,0,.57.57,1.87,1.87,0,0,0,.56.56,1.94,1.94,0,0,0,.57.57,1.87,1.87,0,0,0,.56.56,1.94,1.94,0,0,0,.57.57,1.87,1.87,0,0,0,.56.56,1.94,1.94,0,0,0,.57.57,1.87,1.87,0,0,0,.56.56,1.94,1.94,0,0,0,.57.57,1.87,1.87,0,0,0,.56.56,1.94,1.94,0,0,0,.57.57,1.87,1.87,0,0,0,.56.56,1.94,1.94,0,0,0,.57.57,1.87,1.87,0,0,0,.56.56,1.94,1.94,0,0,0,.57.57,1.87,1.87,0,0,0,.56.56,1.94,1.94,0,0,0,.57.57,1.87,1.87,0,0,0,.56.56,1.94,1.94,0,0,0,.57.57,1.87,1.87,0,0,0,.56.56,1.94,1.94,0,0,0,.57.57,1.87,1.87,0,0,0,.56.56,1.94,1.94,0,0,0,.57.57,1.76,1.76,0,0,0,.56.56,1.94,1.94,0,0,0,.57.57,1.87,1.87,0,0,0,.56.56,1.94,1.94,0,0,0,.57.57,1.76,1.76,0,0,0,.56.56,1.94,1.94,0,0,0,.57.57,1.76,1.76,0,0,0,.56.56,1.94,1.94,0,0,0,.57.57,1.76,1.76,0,0,0,.56.56,1.94,1.94,0,0,0,.57.57,1.9,1.9,0,0,0,.56.57,2,2,0,0,0,.57.56,1.76,1.76,0,0,0,.56.56,1.94,1.94,0,0,0,.57.57,1.9,1.9,0,0,0,.56.57,2,2,0,0,0,.57.56,1.9,1.9,0,0,0,.56.57,2,2,0,0,0,.57.56,1.9,1.9,0,0,0,.56.57,2,2,0,0,0,.57.56,1.9,1.9,0,0,0,.56.57,2,2,0,0,0,.57.56,1.9,1.9,0,0,0,.56.57,2,2,0,0,0,.57.56,1.9,1.9,0,0,0,.56.57,2,2,0,0,0,.57.56A45.15,45.15,0,0,0,54,223.7a45.15,45.15,0,0,0,1.13,1.13A45.15,45.15,0,0,0,56.26,226a45.15,45.15,0,0,0,1.13,1.13,45.15,45.15,0,0,0,1.13,1.13,45.15,45.15,0,0,0,1.13,1.13,45.15,45.15,0,0,0,1.13,1.13,45.15,45.15,0,0,0,1.13,1.13A45.15,45.15,0,0,0,63,232.74a45.15,45.15,0,0,0,1.13,1.13A45.15,45.15,0,0,0,65.3,235a6.54,6.54,0,0,1,.79.85H235.8a0,0,0,0,0,0,0v-170A1.1,1.1,0,0,0,235.57,65.57Z" transform="translate(28.83 28.92)"/></g></g><g id="図案"><path class="cls-6" d="M18.76,72.07a28.6,28.6,0,0,0,14.39,4c.48,0,1,0,1.45-.07l.4,0c7.09-.48,13.74-3.75,19.5-9.13l.08-.07c.41-.39.82-.79,1.22-1.2l.14-.14c.39-.39.77-.8,1.15-1.21l.15-.17c.38-.42.75-.85,1.12-1.29l.13-.15c.39-.47.78-1,1.16-1.44l0,0a57.85,57.85,0,0,0,3.46-5l0-.06c.34-.55.67-1.1,1-1.66.07-.12.13-.24.2-.35.27-.47.54-.95.8-1.43l.25-.49c.24-.45.48-.9.7-1.36.1-.18.19-.37.28-.56.22-.44.43-.89.65-1.35l.27-.59c.21-.46.41-.92.61-1.39l.26-.59.6-1.48c.07-.18.15-.36.22-.55.21-.55.42-1.11.62-1.67l.15-.39c.51-1.43,1-2.88,1.43-4.36a.56.56,0,0,1,0-.12c.2-.68.4-1.38.59-2.08l.48-1.86c-2.88-1-5.71-2.13-8.48-3.41a1.35,1.35,0,0,0-1.62.39A45.17,45.17,0,0,1,37.55,46.56c-1,.23-2,.42-2.95.59a44.41,44.41,0,0,1-7.61.66,44.45,44.45,0,0,1-7.35-.61,1.35,1.35,0,0,0-1.55,1.34V70.9A1.34,1.34,0,0,0,18.76,72.07Z" transform="translate(28.83 28.92)"/><path class="cls-6" d="M52.18,20.41A91.44,91.44,0,0,0,62,26.19c.87.44,1.76.87,2.65,1.29A90,90,0,0,0,73,30.89h0v-.05c.93.33,1.87.65,2.82.95A91.71,91.71,0,0,0,103.47,36,92.42,92.42,0,0,0,119.7,34.6c1.5-.27,3-.57,4.47-.92,2.35-.54,4.65-1.17,6.92-1.89l1.79-.58,1-.36v0c1.06-.37,2.13-.76,3.17-1.18q1-.41,2.07-.84c1.05-.45,2.09-.92,3.12-1.4l.94-.43,1.72-.86a93.71,93.71,0,0,0,9.79-5.76l0,0A1.35,1.35,0,0,0,154,18H53A1.35,1.35,0,0,0,52.18,20.41Z" transform="translate(28.83 28.92)"/><path class="cls-6" d="M19.17,44.12a42,42,0,0,0,7.82.74,41.59,41.59,0,0,0,7.61-.7c1-.18,2-.41,2.95-.66A42.09,42.09,0,0,0,59.14,29.93a1.35,1.35,0,0,0-.39-2.07,94.68,94.68,0,0,1-14.47-9.62,1.31,1.31,0,0,0-.83-.29h-24a1.34,1.34,0,0,0-1.35,1.35V42.79A1.35,1.35,0,0,0,19.17,44.12Z" transform="translate(28.83 28.92)"/><path class="cls-6" d="M187.29,47.2a44.51,44.51,0,0,1-7.34.61,44.32,44.32,0,0,1-7.61-.66c-1-.17-2-.36-3-.59a45.2,45.2,0,0,1-24.69-15.77,1.34,1.34,0,0,0-1.62-.39,88.61,88.61,0,0,1-8.47,3.41l.54,2c.05.19.1.37.16.56q.72,2.56,1.56,5c.08.22.15.44.23.65.14.4.29.8.44,1.19s.22.59.33.87.28.73.43,1.08.25.63.38.94.29.67.43,1,.29.66.43,1,.28.62.43.93l.48,1,.42.84c.18.36.36.72.55,1.07l.39.74c.21.4.43.78.65,1.17l.33.59.84,1.4.18.3a59.27,59.27,0,0,0,3.44,5l0,0c.39.5.78,1,1.17,1.45l.11.12c.38.46.76.9,1.15,1.33l.11.12,1.2,1.28.08.07c6.05,6.15,13.17,9.9,20.81,10.43.14,0,.28,0,.43,0,.47,0,1,.07,1.45.07a28.59,28.59,0,0,0,14.38-4,1.34,1.34,0,0,0,.67-1.17V48.53A1.34,1.34,0,0,0,187.29,47.2Z" transform="translate(28.83 28.92)"/><path class="cls-6" d="M147.79,29.93A42.13,42.13,0,0,0,169.38,43.5c1,.25,2,.48,3,.66a41.35,41.35,0,0,0,7.61.7,42,42,0,0,0,7.81-.74,1.35,1.35,0,0,0,1.08-1.33V19.3A1.34,1.34,0,0,0,187.49,18h-24a1.34,1.34,0,0,0-.84.29,94.28,94.28,0,0,1-14.48,9.62A1.34,1.34,0,0,0,147.79,29.93Z" transform="translate(28.83 28.92)"/><path class="cls-6" d="M186.9,185.11H20A1.94,1.94,0,0,0,20,189H186.9a1.94,1.94,0,1,0,0-3.88Z" transform="translate(28.83 28.92)"/><g class="cls-7"><path class="cls-6" d="M44,110.54,30,122l-7-8.3,22.1-17.8H56v70.8H44Z" transform="translate(28.83 28.92)"/><path class="cls-6" d="M136.79,155.74l27.3-26.8a31.94,31.94,0,0,0,5.25-6.45,14.18,14.18,0,0,0,1.95-7.45,10.2,10.2,0,0,0-3.25-8,11.55,11.55,0,0,0-8-3,10.5,10.5,0,0,0-8.2,3.45,15.82,15.82,0,0,0-3.8,8.65l-11.7-1.8a22.34,22.34,0,0,1,2.5-8.1,23.09,23.09,0,0,1,5.1-6.4,23.61,23.61,0,0,1,7.25-4.25,25.78,25.78,0,0,1,9.05-1.55,30.27,30.27,0,0,1,8.85,1.3,22.5,22.5,0,0,1,7.55,4,19,19,0,0,1,7.2,15.45,21.61,21.61,0,0,1-.9,6.35,24.66,24.66,0,0,1-2.45,5.55,32.86,32.86,0,0,1-3.6,5,54.37,54.37,0,0,1-4.45,4.55L152,155.74h31.9v11h-47.1Z" transform="translate(28.83 28.92)"/></g><rect class="cls-6" x="113.02" y="157.02" width="30.04" height="10.28"/></g><g id="淡光彩_適宜オフに_" data-name="淡光彩（適宜オフに）"><g class="cls-8"><rect class="cls-9" width="264.78" height="264.78"/></g></g></g></svg>