<?xml version="1.0" encoding="utf-8"?>
<!-- Generator: Adobe Illustrator 24.3.0, SVG Export Plug-In . SVG Version: 6.00 Build 0)  -->
<svg version="1.1"
	 id="svg6" inkscape:export-filename="D:\OneDrive\繝峨く繝･繝｡繝ｳ繝bunkasai\pic\all_logo.png" inkscape:export-xdpi="96" inkscape:export-ydpi="96" inkscape:version="0.92.3 (2405546, 2018-03-11)" sodipodi:docname="all_logo.svg" xmlns:cc="http://creativecommons.org/ns#" xmlns:dc="http://purl.org/dc/elements/1.1/" xmlns:inkscape="http://www.inkscape.org/namespaces/inkscape" xmlns:rdf="http://www.w3.org/1999/02/22-rdf-syntax-ns#" xmlns:sodipodi="http://sodipodi.sourceforge.net/DTD/sodipodi-0.dtd" xmlns:svg="http://www.w3.org/2000/svg"
	 xmlns="http://www.w3.org/2000/svg" xmlns:xlink="http://www.w3.org/1999/xlink" x="0px" y="0px" viewBox="0 0 394 290"
	 style="enable-background:new 0 0 394 290;" xml:space="preserve">
<sodipodi:namedview  bordercolor="#666666" borderopacity="1" gridtolerance="10" guidetolerance="10" id="namedview8" inkscape:current-layer="svg6" inkscape:cx="196.98" inkscape:cy="98.519997" inkscape:pageopacity="0" inkscape:pageshadow="2" inkscape:window-height="480" inkscape:window-maximized="0" inkscape:window-width="725" inkscape:window-x="0" inkscape:window-y="0" inkscape:zoom="1.1977264" objecttolerance="10" pagecolor="#ffffff" showgrid="false">
	</sodipodi:namedview>
<text transform="matrix(1 0 0 1 337.8354 436.7567)"><tspan x="0" y="0" style="font-family:'FuturaBT-Light'; font-size:25px;">69th Tsukukoma Fes</tspan><tspan x="0" y="30" style="font-family:'FuturaBT-Light'; font-size:25px;">2020. 10. 30 – </tspan></text>
<g>
	
		<image style="overflow:visible;enable-background:new    ;" width="3283" height="1642" id="image2" xlink:href="DE1255B1.png"  transform="matrix(0.12 0 0 0.12 0 0)">
	</image>
	<g>
		<path d="M174,226.2c0.5-0.3,0.9-0.5,1.4-0.7s1-0.2,1.4-0.2c1.5,0,2.8,0.5,3.7,1.5c1,1,1.5,2.3,1.5,4c0,1.7-0.5,3.1-1.6,4.1
			c-1.1,1.1-2.5,1.6-4.2,1.6c-1.7,0-3-0.5-4-1.5c-1-1-1.5-2.3-1.5-4c0-1,0.2-2,0.6-3c0.4-1,1.4-2.5,2.9-4.6l4.2-5.8l1.3,0.8
			L174,226.2z M172.4,230.9c0,1.3,0.4,2.3,1.1,3c0.7,0.8,1.7,1.1,2.9,1.1c1.2,0,2.2-0.4,2.9-1.2c0.7-0.8,1.1-1.9,1.1-3.2
			c0-1.2-0.4-2.2-1.1-2.9c-0.7-0.8-1.7-1.1-2.8-1.1c-1.2,0-2.2,0.4-2.9,1.2C172.8,228.6,172.4,229.7,172.4,230.9z"/>
		<path d="M193.2,228.3c-0.5,0.3-0.9,0.5-1.4,0.7c-0.5,0.1-0.9,0.2-1.4,0.2c-1.5,0-2.8-0.5-3.8-1.5c-1-1-1.5-2.3-1.5-4
			c0-1.7,0.5-3.1,1.6-4.1c1.1-1.1,2.5-1.6,4.2-1.6c1.7,0,3,0.5,4,1.5s1.5,2.3,1.5,4c0,1-0.2,2.1-0.7,3.2c-0.5,1.1-1.4,2.6-2.8,4.4
			l-4.3,5.8l-1.3-0.8L193.2,228.3z M194.8,223.5c0-1.3-0.4-2.3-1.1-3c-0.7-0.8-1.7-1.1-2.9-1.1s-2.2,0.4-2.9,1.2
			c-0.7,0.8-1.1,1.9-1.1,3.2c0,1.2,0.4,2.2,1.1,2.9c0.7,0.8,1.7,1.1,2.8,1.1c1.2,0,2.2-0.4,2.9-1.2S194.8,224.8,194.8,223.5z"/>
		<path d="M200.4,226.5h-2v-1.3h2v-4.4h1.5v4.4h2.2v1.3h-2.2v9.5h-1.5V226.5z"/>
		<path d="M206.3,236v-18.9h1.4v9.8c0.4-0.7,1-1.2,1.6-1.6c0.6-0.3,1.4-0.5,2.2-0.5c1.2,0,2.2,0.3,2.9,1s1,1.6,1,2.9v7.3h-1.5v-6.7
			c0-1.1-0.2-1.9-0.7-2.4c-0.5-0.5-1.1-0.8-2.1-0.8c-1.1,0-2,0.3-2.5,1c-0.5,0.7-0.8,1.7-0.8,3.2v5.7H206.3z"/>
		<path d="M229.9,236v-16.3H225v-1.5h11.5v1.5h-4.9V236H229.9z"/>
		<path d="M234.7,234.1l1.4-0.8c0.2,0.6,0.6,1.1,1,1.4c0.4,0.3,1,0.5,1.6,0.5c0.6,0,1.1-0.2,1.5-0.5c0.4-0.3,0.6-0.8,0.6-1.3
			c0-0.8-0.7-1.5-2.2-2.1c-0.2-0.1-0.3-0.1-0.4-0.1c-1.1-0.4-1.9-0.9-2.4-1.4c-0.5-0.5-0.7-1.1-0.7-1.8c0-0.9,0.3-1.7,1-2.3
			c0.7-0.6,1.5-0.9,2.5-0.9c0.9,0,1.6,0.2,2.2,0.6c0.6,0.4,1.1,0.9,1.4,1.6l-1.4,0.8c-0.2-0.5-0.5-0.9-0.9-1.2
			c-0.4-0.3-0.9-0.4-1.5-0.4c-0.5,0-1,0.2-1.3,0.5c-0.3,0.3-0.5,0.7-0.5,1.1c0,0.4,0.2,0.8,0.5,1.1c0.3,0.3,1,0.6,2.1,1
			c1.2,0.4,2,0.9,2.4,1.4c0.4,0.5,0.6,1.2,0.6,2c0,1-0.4,1.8-1.1,2.4c-0.7,0.6-1.7,0.9-2.9,0.9c-0.9,0-1.7-0.2-2.4-0.6
			S235,234.8,234.7,234.1z"/>
		<path d="M247,225.2v5.4c0,1.6,0.2,2.8,0.7,3.5c0.5,0.7,1.3,1,2.4,1c1.1,0,1.9-0.3,2.4-1s0.7-1.8,0.7-3.5v-5.4h1.5v6.2
			c0,1.7-0.4,3-1.2,3.8c-0.8,0.9-1.9,1.3-3.4,1.3c-1.5,0-2.6-0.4-3.4-1.3c-0.8-0.9-1.2-2.1-1.2-3.8v-6.2H247z"/>
		<path d="M258.7,236v-18.9h1.5V230l5.4-4.8h2.1l-5.8,4.9l6.2,6H266l-5.8-5.6v5.6H258.7z"/>
		<path d="M271.6,225.2v5.4c0,1.6,0.2,2.8,0.7,3.5c0.5,0.7,1.3,1,2.4,1c1.1,0,1.9-0.3,2.4-1s0.7-1.8,0.7-3.5v-5.4h1.5v6.2
			c0,1.7-0.4,3-1.2,3.8c-0.8,0.9-1.9,1.3-3.4,1.3c-1.5,0-2.6-0.4-3.4-1.3c-0.8-0.9-1.2-2.1-1.2-3.8v-6.2H271.6z"/>
		<path d="M283.3,236v-18.9h1.5V230l5.4-4.8h2.1l-5.8,4.9l6.2,6h-2.1l-5.8-5.6v5.6H283.3z"/>
		<path d="M299.7,236.5c-0.8,0-1.5-0.2-2.2-0.5c-0.7-0.3-1.4-0.7-1.9-1.3c-0.5-0.5-1-1.2-1.2-1.9c-0.3-0.7-0.4-1.4-0.4-2.2
			c0-0.8,0.1-1.5,0.4-2.2s0.7-1.3,1.3-1.9c0.6-0.6,1.2-1,1.9-1.3s1.5-0.4,2.2-0.4c0.8,0,1.6,0.1,2.3,0.4c0.7,0.3,1.4,0.7,1.9,1.3
			c0.6,0.6,1,1.2,1.3,1.9c0.3,0.7,0.4,1.5,0.4,2.2s-0.1,1.5-0.4,2.2c-0.3,0.7-0.7,1.3-1.3,1.9c-0.6,0.6-1.2,1-1.9,1.3
			C301.2,236.3,300.5,236.5,299.7,236.5z M299.7,235.1c1.2,0,2.2-0.4,3-1.3c0.8-0.9,1.2-1.9,1.2-3.2c0-1.3-0.4-2.3-1.2-3.2
			c-0.8-0.9-1.8-1.3-3-1.3c-1.2,0-2.2,0.4-3,1.3s-1.2,1.9-1.2,3.2c0,1.2,0.4,2.3,1.2,3.2C297.5,234.7,298.5,235.1,299.7,235.1z"/>
		<path d="M310.2,236h-1.5v-10.8h1.5v1.7c0.4-0.7,0.8-1.2,1.4-1.6s1.3-0.5,2-0.5c0.8,0,1.5,0.2,2,0.5c0.6,0.4,1,0.9,1.3,1.6
			c0.4-0.7,1-1.3,1.6-1.6c0.6-0.4,1.4-0.5,2.2-0.5c1.1,0,2.1,0.3,2.7,1c0.7,0.7,1,1.6,1,2.9v7.3h-1.5v-6.7c0-1.1-0.2-1.9-0.7-2.4
			c-0.4-0.5-1.1-0.8-1.9-0.8c-1,0-1.8,0.3-2.3,1c-0.5,0.7-0.7,1.7-0.7,3.2v5.7h-1.5v-6.7c0-1.1-0.2-1.9-0.6-2.4
			c-0.4-0.5-1.1-0.8-1.9-0.8c-1.1,0-1.8,0.3-2.3,1s-0.7,1.7-0.7,3.2V236z"/>
		<path d="M336.4,236v-2c-0.4,0.8-0.9,1.4-1.5,1.8c-0.6,0.4-1.4,0.6-2.3,0.6c-1.6,0-2.8-0.5-3.8-1.6s-1.4-2.5-1.4-4.2
			c0-1.7,0.5-3.1,1.4-4.2c0.9-1.1,2.1-1.6,3.6-1.6c0.9,0,1.7,0.2,2.4,0.6c0.7,0.4,1.2,1,1.6,1.8v-2h1.5V236H336.4z M329.1,230.7
			c0,1.4,0.3,2.5,0.9,3.2c0.6,0.8,1.5,1.1,2.7,1.1c1.1,0,2-0.4,2.7-1.2c0.7-0.8,1-2,1-3.4c0-1.3-0.3-2.4-1-3.1
			c-0.7-0.8-1.5-1.1-2.7-1.1s-2,0.4-2.7,1.2C329.5,228.2,329.1,229.3,329.1,230.7z"/>
		<path d="M349.4,236v-17.9h8.9v1.5H351v5.6h7v1.5h-7v9.2H349.4z"/>
		<path d="M370.1,230.6h-8.6c0,1.4,0.4,2.5,1.1,3.3c0.7,0.8,1.5,1.2,2.6,1.2c0.8,0,1.5-0.2,2.1-0.6c0.6-0.4,1.1-1.1,1.5-2l1.4,0.8
			c-0.6,1.1-1.2,1.9-2,2.4c-0.8,0.5-1.8,0.8-2.9,0.8c-1.6,0-2.9-0.5-3.9-1.6c-1-1.1-1.5-2.5-1.5-4.2c0-1.8,0.5-3.2,1.5-4.3
			c1-1.1,2.2-1.6,3.8-1.6c1.5,0,2.7,0.5,3.6,1.5c0.9,1,1.4,2.3,1.4,4V230.6z M368.3,229.4c-0.1-1-0.4-1.8-1-2.3s-1.4-0.8-2.4-0.8
			c-0.9,0-1.7,0.3-2.3,0.9c-0.6,0.6-1,1.3-1.1,2.3H368.3z"/>
		<path d="M372,234.1l1.4-0.8c0.2,0.6,0.6,1.1,1,1.4c0.4,0.3,1,0.5,1.6,0.5c0.6,0,1.1-0.2,1.5-0.5c0.4-0.3,0.6-0.8,0.6-1.3
			c0-0.8-0.7-1.5-2.2-2.1c-0.2-0.1-0.3-0.1-0.4-0.1c-1.1-0.4-1.9-0.9-2.4-1.4c-0.5-0.5-0.7-1.1-0.7-1.8c0-0.9,0.3-1.7,1-2.3
			c0.7-0.6,1.5-0.9,2.5-0.9c0.9,0,1.6,0.2,2.2,0.6c0.6,0.4,1.1,0.9,1.4,1.6l-1.4,0.8c-0.2-0.5-0.5-0.9-0.9-1.2
			c-0.4-0.3-0.9-0.4-1.5-0.4c-0.5,0-1,0.2-1.3,0.5c-0.3,0.3-0.5,0.7-0.5,1.1c0,0.4,0.2,0.8,0.5,1.1c0.3,0.3,1,0.6,2.1,1
			c1.2,0.4,2,0.9,2.4,1.4c0.4,0.5,0.6,1.2,0.6,2c0,1-0.4,1.8-1.1,2.4c-0.7,0.6-1.7,0.9-2.9,0.9c-0.9,0-1.7-0.2-2.4-0.6
			S372.3,234.8,372,234.1z"/>
		<path d="M383.1,235c0-0.3,0.1-0.6,0.4-0.9s0.5-0.4,0.9-0.4c0.3,0,0.6,0.1,0.9,0.4c0.2,0.2,0.4,0.5,0.4,0.9s-0.1,0.6-0.4,0.9
			c-0.2,0.2-0.5,0.4-0.9,0.4c-0.4,0-0.6-0.1-0.9-0.4C383.2,235.6,383.1,235.3,383.1,235z"/>
		<path d="M236.6,264.6v1.4h-11.5l3.8-4.2c0.3-0.3,0.7-0.7,1.2-1.3c3.2-3.5,4.8-5.9,4.8-7.5c0-1.1-0.4-1.9-1.1-2.6
			c-0.7-0.7-1.7-1-2.8-1c-1.2,0-2.1,0.4-2.8,1.1c-0.7,0.8-1,1.8-1,3.1h-1.6v-0.2c0-1.7,0.5-3,1.5-4c1-1,2.4-1.5,4.1-1.5
			c1.7,0,3,0.5,4,1.4c1,0.9,1.5,2.1,1.5,3.6c0,1.9-1.4,4.4-4.2,7.3l-0.1,0.1l-3.9,4.2H236.6z"/>
		<path d="M245.8,266.5c-1.8,0-3.3-0.8-4.3-2.5c-1.1-1.6-1.6-3.9-1.6-6.8c0-2.9,0.5-5.2,1.6-6.8c1.1-1.6,2.5-2.5,4.4-2.5
			c1.9,0,3.3,0.8,4.4,2.5c1.1,1.6,1.6,3.9,1.6,6.8c0,2.9-0.5,5.2-1.6,6.8C249.2,265.7,247.7,266.5,245.8,266.5z M241.5,257.3
			c0,2.4,0.4,4.3,1.2,5.7c0.8,1.4,1.8,2.1,3.2,2.1c1.4,0,2.5-0.7,3.2-2c0.7-1.3,1.1-3.3,1.1-5.8c0-2.5-0.4-4.5-1.1-5.8
			c-0.7-1.3-1.8-2-3.3-2c-1.3,0-2.4,0.7-3.2,2.1C241.9,252.9,241.5,254.8,241.5,257.3z"/>
		<path d="M265.4,264.6v1.4h-11.5l3.8-4.2c0.3-0.3,0.7-0.7,1.2-1.3c3.2-3.5,4.8-5.9,4.8-7.5c0-1.1-0.4-1.9-1.1-2.6
			c-0.7-0.7-1.7-1-2.8-1c-1.2,0-2.1,0.4-2.8,1.1c-0.7,0.8-1,1.8-1,3.1h-1.6v-0.2c0-1.7,0.5-3,1.5-4c1-1,2.4-1.5,4.1-1.5
			c1.7,0,3,0.5,4,1.4c1,0.9,1.5,2.1,1.5,3.6c0,1.9-1.4,4.4-4.2,7.3l-0.1,0.1l-3.9,4.2H265.4z"/>
		<path d="M274.6,266.5c-1.8,0-3.3-0.8-4.3-2.5c-1.1-1.6-1.6-3.9-1.6-6.8c0-2.9,0.5-5.2,1.6-6.8c1.1-1.6,2.5-2.5,4.4-2.5
			c1.9,0,3.3,0.8,4.4,2.5c1.1,1.6,1.6,3.9,1.6,6.8c0,2.9-0.5,5.2-1.6,6.8C278,265.7,276.5,266.5,274.6,266.5z M270.3,257.3
			c0,2.4,0.4,4.3,1.2,5.7c0.8,1.4,1.8,2.1,3.2,2.1c1.4,0,2.5-0.7,3.2-2c0.7-1.3,1.1-3.3,1.1-5.8c0-2.5-0.4-4.5-1.1-5.8
			c-0.7-1.3-1.8-2-3.3-2c-1.3,0-2.4,0.7-3.2,2.1C270.7,252.9,270.3,254.8,270.3,257.3z"/>
		<path d="M284.2,265c0-0.3,0.1-0.6,0.4-0.9s0.5-0.4,0.9-0.4c0.3,0,0.6,0.1,0.9,0.4c0.2,0.2,0.4,0.5,0.4,0.9s-0.1,0.6-0.4,0.9
			c-0.2,0.2-0.5,0.4-0.9,0.4c-0.4,0-0.6-0.1-0.9-0.4C284.3,265.6,284.2,265.3,284.2,265z"/>
		<path d="M302.9,266v-16.2h-3.2l0.8-1.5h4V266H302.9z"/>
		<path d="M317.8,266.5c-1.8,0-3.3-0.8-4.3-2.5c-1.1-1.6-1.6-3.9-1.6-6.8c0-2.9,0.5-5.2,1.6-6.8c1.1-1.6,2.5-2.5,4.4-2.5
			c1.9,0,3.3,0.8,4.4,2.5c1.1,1.6,1.6,3.9,1.6,6.8c0,2.9-0.5,5.2-1.6,6.8C321.2,265.7,319.7,266.5,317.8,266.5z M313.5,257.3
			c0,2.4,0.4,4.3,1.2,5.7c0.8,1.4,1.8,2.1,3.2,2.1c1.4,0,2.5-0.7,3.2-2c0.7-1.3,1.1-3.3,1.1-5.8c0-2.5-0.4-4.5-1.1-5.8
			c-0.7-1.3-1.8-2-3.3-2c-1.3,0-2.4,0.7-3.2,2.1C313.9,252.9,313.5,254.8,313.5,257.3z"/>
		<path d="M327.4,265c0-0.3,0.1-0.6,0.4-0.9s0.5-0.4,0.9-0.4c0.3,0,0.6,0.1,0.9,0.4c0.2,0.2,0.4,0.5,0.4,0.9s-0.1,0.6-0.4,0.9
			c-0.2,0.2-0.5,0.4-0.9,0.4c-0.4,0-0.6-0.1-0.9-0.4C327.5,265.6,327.4,265.3,327.4,265z"/>
		<path d="M342.4,261.5c0.1,1.1,0.4,2,1.1,2.6c0.7,0.6,1.6,0.9,2.8,0.9c1.2,0,2.2-0.3,2.9-1s1.1-1.6,1.1-2.8c0-1.2-0.4-2.1-1.1-2.8
			c-0.7-0.7-1.7-1-3-1c-0.2,0-0.3,0-0.4,0c-0.1,0-0.2,0-0.3,0v-1.5c0.2,0,0.4,0,0.5,0c0.1,0,0.2,0,0.3,0c1.1,0,2-0.3,2.7-0.9
			c0.6-0.6,1-1.4,1-2.4c0-1-0.3-1.8-1-2.4c-0.6-0.6-1.5-0.9-2.5-0.9c-1,0-1.7,0.3-2.3,0.8c-0.6,0.5-0.9,1.2-1.1,2.1h-1.7
			c0.1-1.3,0.7-2.4,1.6-3.2c0.9-0.8,2.1-1.2,3.5-1.2c1.5,0,2.8,0.4,3.7,1.3s1.4,2,1.4,3.3c0,1-0.3,1.9-0.8,2.6s-1.3,1.2-2.3,1.5
			c1.1,0.4,1.9,0.9,2.5,1.7c0.6,0.8,0.9,1.7,0.9,2.8c0,1.6-0.5,2.9-1.5,3.8c-1,0.9-2.4,1.4-4.1,1.4c-1.7,0-3-0.4-4-1.3
			c-1-0.9-1.5-2.1-1.6-3.7L342.4,261.5z"/>
		<path d="M361,266.5c-1.8,0-3.3-0.8-4.3-2.5c-1.1-1.6-1.6-3.9-1.6-6.8c0-2.9,0.5-5.2,1.6-6.8c1.1-1.6,2.5-2.5,4.4-2.5
			c1.9,0,3.3,0.8,4.4,2.5c1.1,1.6,1.6,3.9,1.6,6.8c0,2.9-0.5,5.2-1.6,6.8C364.4,265.7,362.9,266.5,361,266.5z M356.7,257.3
			c0,2.4,0.4,4.3,1.2,5.7c0.8,1.4,1.8,2.1,3.2,2.1c1.4,0,2.5-0.7,3.2-2c0.7-1.3,1.1-3.3,1.1-5.8c0-2.5-0.4-4.5-1.1-5.8
			c-0.7-1.3-1.8-2-3.3-2c-1.3,0-2.4,0.7-3.2,2.1C357.1,252.9,356.7,254.8,356.7,257.3z"/>
		<path d="M375.5,260.1H388v1h-12.5V260.1z"/>
	</g>
</g>
</svg>
