<?xml version="1.0" encoding="utf-8"?>
<!-- Generator: Adobe Illustrator 24.3.0, SVG Export Plug-In . SVG Version: 6.00 Build 0)  -->
<svg version="1.1" id="レイヤー_1" xmlns="http://www.w3.org/2000/svg" xmlns:xlink="http://www.w3.org/1999/xlink" x="0px"
	 y="0px" viewBox="0 0 24 24" style="enable-background:new 0 0 24 24;" xml:space="preserve">
<style type="text/css">
	.st0{fill:none;}
	.st1{fill:#EEEEEE;}
	.st2{fill:none;stroke:#000000;stroke-width:1.5;}
</style>
<path class="st0" d="M0,0h24v24H0V0z"/>
<g>
	<path class="st1" d="M19,10.1c-0.7-3.3-3.5-5.7-7-5.7C9.3,4.5,6.9,6,5.8,8.3c-2.8,0.3-5,2.7-5,5.6c0,3.2,2.5,5.7,5.7,5.7h12.1
		c2.6,0,4.7-2.1,4.7-4.7C23.4,12.3,21.4,10.4,19,10.1z"/>
	<path class="st2" d="M19,10.1c-0.7-3.3-3.5-5.7-7-5.7C9.3,4.5,6.9,6,5.8,8.3c-2.8,0.3-5,2.7-5,5.6c0,3.2,2.5,5.7,5.7,5.7h12.1
		c2.6,0,4.7-2.1,4.7-4.7C23.4,12.3,21.4,10.4,19,10.1z"/>
</g>
</svg>
